<?xml version="1.0" encoding="utf-8"?>
<!-- Generator: Adobe Illustrator 25.2.3, SVG Export Plug-In . SVG Version: 6.00 Build 0)  -->
<svg version="1.1" id="Layer_1" xmlns="http://www.w3.org/2000/svg" xmlns:xlink="http://www.w3.org/1999/xlink" x="0px" y="0px"
	 viewBox="0 0 192 192" style="enable-background:new 0 0 192 192;" xml:space="preserve">
<style type="text/css">
	.st0{fill:#AEAEAE;stroke:#231F20;stroke-width:0.7;stroke-miterlimit:10;}
	.st1{fill:#F4FFF2;stroke:#231F20;stroke-width:0.7;stroke-miterlimit:10;}
	.st2{fill:#D8EDCB;stroke:#231F20;stroke-width:0.7;stroke-miterlimit:10;}
	.st3{fill:#231F20;stroke:#231F20;stroke-width:0.7;stroke-miterlimit:10;}
</style>
<path class="st0" d="M117.3,123.1c-14.5,32.5-48.4,6.1-48.6-21.8c-2.8-16.8,8-34.7,26.5-29.1c13.3-6.5,28.6,4.3,29.1,19.1
	C123.3,101.9,122.5,114.5,117.3,123.1z"/>
<path class="st1" d="M108.2,82.9c11.5-1.5,16.8,6.9,12.8,15.8l-0.4,3.4c-0.8,5.9-0.4,6.6-2.8,11.5c-3.6,5.8-10.6,14.3-15.6,15.7
	c-4.4,0-5.4-29.8-3.9-33.9c0,0,0,0-0.1-0.1C100.5,88.3,102.4,83.8,108.2,82.9z"/>
<path class="st2" d="M92.1,128.5c-5.3-1.8-13.8-10-17.7-16.6c-0.2-0.3-0.4-0.6-0.5-0.9c-6.1-14.9-3-38.2,16.2-37.6
	c0.5,0,1.1,0.2,1.6,0.3c2.5,0.5,4.8,1.5,6.9,2.8c2.2,1.4,4,3.2,5.6,5.3c-0.6,0.3-1.2,0.6-1.8,1c-9,7-8,19.9-9.1,30.5
	c-0.1,1.2,0,2.4,0.1,3.6C93.9,121.4,95.6,126.1,92.1,128.5z"/>
<path class="st3" d="M80.4,101.2c-3.3,0.7-7.7-10.9-1.7-10.8C79.9,93.5,81.2,98.8,80.4,101.2z"/>
<path class="st3" d="M112.2,102.8c3.3,0.7,7.7-10.9,1.7-10.8C112.7,95.1,111.4,100.3,112.2,102.8z"/>
<path class="st0" d="M72.3,122.4c-3.4-7.2-21.6-29-28-16.3c-2.8,11.1-9.2,20.9-13.9,31.3c-2.5,5.4-3.7,4.3-8.8,5.5
	c-1.9,0.5-5,3.9-2.3,5.4c1.1,0.2,3.6-1.6,4.6-2c2.8-0.3,9.2-1.8,10.5-4.3c3.9-7.9,7.6-14.6,10.8-23.5c1.3-2.3,2.2-6.1,3.7-8.2
	c6.1,2,12.3,9.4,17.5,12.7c0,0,4.1,2.2,4.1,2.2S73.5,125,72.3,122.4z"/>
<path class="st0" d="M120.5,122.4c3.4-7.2,21.6-29,28-16.3c2.8,11.1,9.2,20.9,13.9,31.3c2.5,5.4,3.7,4.3,8.8,5.5
	c1.9,0.5,5,3.9,2.3,5.4c-1.1,0.2-3.6-1.6-4.6-2c-2.8-0.3-9.2-1.8-10.5-4.3c-3.9-7.9-7.6-14.6-10.8-23.5c-1.3-2.3-2.2-6.1-3.7-8.2
	c-6.1,2-12.3,9.4-17.5,12.7c0,0-4.1,2.2-4.1,2.2S119.3,125,120.5,122.4z"/>
<path class="st2" d="M90.1,68.3c11.4,2.1,6.4-3.1,18.3-9.1c6.4-2.3,13.8-5.9,20.5-7.7c0.6-3.4-0.9-2.6-3.5-2.4
	c-11.5,2.5-7.3,1.7-0.9-4.2c0.6-5.8-6.2,1-8.3,1.9c-4.6,2-14.2,5.1-19.1,6.3c-3.5,0.8-10.8,1.9-14.4,2.3c0,0-0.7-4.9-0.7-4.9
	c0.4-1.7,1-5.4-0.4-6.9c-1.6-0.1-3.6,0.4-4.2,2c-7.5,7.5-2-9-12.2,1.3c0.9,3.9,6.2,6.8,7.1,10.8c-1.8,0.9-11.8,1.2-10.6,5.1
	c2.8,1.9,8.3-1.2,10.8-1.5c3.4-0.4-0.6,1.2-1.8,1.8c-2.4,1.2-8,0.8-7.4,4.4c0.6,3.5,12.6-7.8,12.3,3.8
	C73.9,76.3,82.3,66.8,90.1,68.3z"/>
<path class="st1" d="M90.1,68.2c-1.8-6.6-1-14.6,2.9-20.1c3.4-2.4,5.9-0.2,6.1-5.2c0.7-1.4,0-3-1.1-4c0.1-2.1,2.7-2.6,4.4-2
	c0.3,2.2-0.5,4.9,1.4,6.7c0-2.3,2.1-5.5,2.4-7.7c0.9,0.2,3.4,0.6,4.3,0.8c-0.4,2.3-1,5.5-1.4,7.8c4.5-1.2,2.3-6.7,7.3-4.1
	c-2.5,10.4-4.2,4.2,1.1,15c0.8,3.5,0.1,8.5-0.5,12c-0.9,5.5,0.9,6.8-5,2.8c-4.6-3.2-3.6-8.2-5.3-12.2c-3.7-5.2-6.7,4.3-8.2,9.1
	C97.6,69.9,91.5,68,90.1,68.2z"/>
</svg>
